# xmcd
#
# Track frame offsets:
#	150
#	11182
#	28675
#	49095
#	83687
#	94425
#	119075
#	138925
#	179100
#
# Disc length: 2521 seconds
#
# Revision: 0
#
# Submitted via: none 0
#
DISCID=7f09d709
DTITLE= / 
DYEAR=
DGENRE=
TTITLE0=
TTITLE1=
TTITLE2=
TTITLE3=
TTITLE4=
TTITLE5=
TTITLE6=
TTITLE7=
TTITLE8=
EXTD=
EXTT0=
EXTT1=
EXTT2=
EXTT3=
EXTT4=
EXTT5=
EXTT6=
EXTT7=
EXTT8=
PLAYORDER=
